<svg width="30" height="30" viewBox="0 0 30 30" fill="none" xmlns="http://www.w3.org/2000/svg">
<path fill-rule="evenodd" clip-rule="evenodd" d="M5 0C2.23858 0 0 2.23858 0 5V25C0 27.7614 2.23858 30 5 30H25C27.7614 30 30 27.7614 30 25V5C30 2.23858 27.7614 0 25 0H5ZM19.1991 3.59985H15.5991V7.79985V11.9999H19.1991C21.1873 11.9999 22.7991 10.1194 22.7991 7.79985C22.7991 5.48026 21.1873 3.59985 19.1991 3.59985ZM10.801 11.9999H10.7984C8.81138 11.9982 7.20104 10.1184 7.20104 7.79985C7.20104 5.48129 8.81138 3.60153 10.7984 3.59985H10.801H15.5984V11.9999H10.801ZM10.7984 19.2001H10.7989H10.7999V19.2364C8.76402 19.4856 7.19886 20.9862 7.19886 22.8001C7.19886 24.7883 9.07927 26.4001 11.3989 26.4001C13.7185 26.4001 15.5989 24.7883 15.5989 22.8001C15.5989 22.8 15.5989 22.8 15.5989 22.7999H15.5999V15.5999H15.5984V12.0001H10.7989H10.7984C8.81038 12.0003 7.19886 13.612 7.19886 15.6001C7.19886 17.5881 8.81038 19.1998 10.7984 19.2001ZM21.5991 15.0001C21.5991 16.6569 20.2559 18.0001 18.5991 18.0001C16.9422 18.0001 15.5991 16.6569 15.5991 15.0001C15.5991 13.3432 16.9422 12.0001 18.5991 12.0001C20.2559 12.0001 21.5991 13.3432 21.5991 15.0001Z" fill="white"/>
</svg>
