<svg width="22" height="21" viewBox="0 0 22 21" fill="none" xmlns="http://www.w3.org/2000/svg">
<path d="M19.6429 0H2.35714C1.73199 0 1.13244 0.230519 0.690391 0.640844C0.248341 1.05117 0 1.60769 0 2.18798L0 18.2332C0 18.8135 0.248341 19.37 0.690391 19.7803C1.13244 20.1906 1.73199 20.4211 2.35714 20.4211H9.0971V13.4784H6.00335V10.2106H9.0971V7.71992C9.0971 4.88694 10.9141 3.32208 13.697 3.32208C15.0297 3.32208 16.4234 3.5427 16.4234 3.5427V6.32326H14.8878C13.3748 6.32326 12.9029 7.19481 12.9029 8.08869V10.2106H16.2805L15.7403 13.4784H12.9029V20.4211H19.6429C20.268 20.4211 20.8676 20.1906 21.3096 19.7803C21.7517 19.37 22 18.8135 22 18.2332V2.18798C22 1.60769 21.7517 1.05117 21.3096 0.640844C20.8676 0.230519 20.268 0 19.6429 0V0Z" fill="white"/>
</svg>
