<svg width="23" height="21" viewBox="0 0 23 21" fill="none" xmlns="http://www.w3.org/2000/svg">
<path d="M11.0086 4.97639C7.8854 4.97639 5.3662 7.31474 5.3662 10.2137C5.3662 13.1127 7.8854 15.4511 11.0086 15.4511C14.1318 15.4511 16.651 13.1127 16.651 10.2137C16.651 7.31474 14.1318 4.97639 11.0086 4.97639ZM11.0086 13.6187C8.99031 13.6187 7.34031 12.0917 7.34031 10.2137C7.34031 8.33577 8.9854 6.80878 11.0086 6.80878C13.0318 6.80878 14.6769 8.33577 14.6769 10.2137C14.6769 12.0917 13.0269 13.6187 11.0086 13.6187ZM18.1979 4.76216C18.1979 5.44133 17.6086 5.98375 16.8818 5.98375C16.1502 5.98375 15.5658 5.43677 15.5658 4.76216C15.5658 4.08755 16.1551 3.54057 16.8818 3.54057C17.6086 3.54057 18.1979 4.08755 18.1979 4.76216ZM21.935 6.00199C21.8515 4.3656 21.4488 2.9161 20.1573 1.72185C18.8707 0.527609 17.3091 0.153839 15.5461 0.0717914C13.7292 -0.0239305 8.28317 -0.0239305 6.4662 0.0717914C4.70816 0.14928 3.14655 0.523051 1.85503 1.71729C0.563506 2.91154 0.165737 4.36104 0.0773439 5.99743C-0.0257813 7.68395 -0.0257813 12.739 0.0773439 14.4255C0.160826 16.0619 0.563506 17.5114 1.85503 18.7056C3.14655 19.8999 4.70325 20.2737 6.4662 20.3557C8.28317 20.4514 13.7292 20.4514 15.5461 20.3557C17.3091 20.2782 18.8707 19.9044 20.1573 18.7056C21.4439 17.5114 21.8466 16.0619 21.935 14.4255C22.0381 12.739 22.0381 7.68851 21.935 6.00199ZM19.5877 16.2351C19.2046 17.1285 18.4631 17.8168 17.4957 18.1769C16.047 18.7102 12.6095 18.5871 11.0086 18.5871C9.40772 18.5871 5.9653 18.7056 4.52155 18.1769C3.55905 17.8214 2.81753 17.1331 2.42958 16.2351C1.85503 14.8904 1.98762 11.6997 1.98762 10.2137C1.98762 8.72778 1.85994 5.53249 2.42958 4.19239C2.81262 3.29898 3.55414 2.6107 4.52155 2.2506C5.97022 1.71729 9.40772 1.84037 11.0086 1.84037C12.6095 1.84037 16.0519 1.72185 17.4957 2.2506C18.4582 2.60614 19.1997 3.29443 19.5877 4.19239C20.1622 5.53705 20.0296 8.72778 20.0296 10.2137C20.0296 11.6997 20.1622 14.895 19.5877 16.2351Z" fill="white"/>
</svg>
