<svg width="129" height="25" viewBox="0 0 129 25" fill="none" xmlns="http://www.w3.org/2000/svg">
<path d="M4.29785 14.2163L14.3809 18.0444V22.1973L0.0766602 15.8228V12.5244L14.3809 6.16699V10.3198L4.29785 14.2163ZM39.0928 25H34.7861V13.9429H23.6606V25H19.3369V0.117188H23.6606V10.4736H34.7861V0.117188H39.0928V25ZM61.6855 3.60352H53.9268V25H49.6372V3.60352H41.9468V0.117188H61.6855V3.60352ZM70.5723 0.117188L77.75 19.1895L84.9106 0.117188H90.499V25H86.1924V16.7969L86.6196 5.8252L79.271 25H76.1777L68.8462 5.84229L69.2734 16.7969V25H64.9668V0.117188H70.5723ZM99.9497 21.5479H111.246V25H95.626V0.117188H99.9497V21.5479ZM124.781 14.1309L114.22 10.2515V6.16699L128.985 12.5244V15.8228L114.22 22.1802V18.0957L124.781 14.1309Z" fill="#0F00BA"/>
</svg>
