<svg width="99" height="27" viewBox="0 0 99 27" fill="none" xmlns="http://www.w3.org/2000/svg">
<path d="M4.29785 15.2163L14.3809 19.0444V23.1973L0.0766602 16.8228V13.5244L14.3809 7.16699V11.3198L4.29785 15.2163ZM38.3237 17.8994C38.0731 20.554 37.0933 22.6276 35.3843 24.1201C33.6753 25.6012 31.4023 26.3418 28.5654 26.3418C26.583 26.3418 24.8341 25.8747 23.3188 24.9404C21.8149 23.9948 20.6528 22.6561 19.8325 20.9243C19.0122 19.1925 18.585 17.1816 18.5508 14.8916V12.5674C18.5508 10.2204 18.9666 8.15251 19.7983 6.36377C20.63 4.57503 21.8206 3.19645 23.3701 2.22803C24.931 1.2596 26.7311 0.775391 28.7705 0.775391C31.5163 0.775391 33.7266 1.52165 35.4014 3.01416C37.0762 4.50667 38.0503 6.61442 38.3237 9.3374H34.0171C33.812 7.54867 33.2879 6.26123 32.4448 5.4751C31.6131 4.67757 30.3883 4.27881 28.7705 4.27881C26.8906 4.27881 25.4437 4.9681 24.4297 6.34668C23.4271 7.71387 22.9144 9.72477 22.8916 12.3794V14.584C22.8916 17.2728 23.3701 19.3236 24.3271 20.7363C25.2956 22.1491 26.7083 22.8555 28.5654 22.8555C30.263 22.8555 31.5391 22.4738 32.3936 21.7104C33.248 20.9471 33.7892 19.6768 34.0171 17.8994H38.3237ZM55.2085 19.5913C55.2085 18.4976 54.8211 17.6545 54.0464 17.062C53.283 16.4696 51.8988 15.8714 49.8936 15.2676C47.8883 14.6637 46.2933 13.9915 45.1084 13.251C42.8411 11.8268 41.7075 9.96973 41.7075 7.67969C41.7075 5.67448 42.5221 4.02246 44.1514 2.72363C45.792 1.4248 47.9168 0.775391 50.5259 0.775391C52.2576 0.775391 53.8014 1.0944 55.1572 1.73242C56.513 2.37044 57.5783 3.2819 58.353 4.4668C59.1278 5.6403 59.5151 6.94482 59.5151 8.38037H55.2085C55.2085 7.08154 54.7983 6.06755 53.978 5.33838C53.1691 4.59782 52.007 4.22754 50.4917 4.22754C49.0789 4.22754 47.9795 4.52946 47.1934 5.1333C46.4186 5.73714 46.0312 6.58024 46.0312 7.6626C46.0312 8.57406 46.4528 9.3374 47.2959 9.95264C48.139 10.5565 49.529 11.1489 51.4658 11.73C53.4027 12.2996 54.9578 12.9548 56.1313 13.6953C57.3049 14.4245 58.165 15.2676 58.7119 16.2246C59.2588 17.1702 59.5322 18.2811 59.5322 19.5571C59.5322 21.6307 58.7347 23.2827 57.1396 24.5132C55.556 25.7323 53.4027 26.3418 50.6797 26.3418C48.8796 26.3418 47.2218 26.0114 45.7065 25.3506C44.2026 24.6784 43.0291 23.7555 42.186 22.582C41.3543 21.4085 40.9385 20.0413 40.9385 18.4805H45.2622C45.2622 19.8932 45.7293 20.987 46.6636 21.7617C47.5978 22.5365 48.9365 22.9238 50.6797 22.9238C52.1836 22.9238 53.3115 22.6219 54.0635 22.0181C54.8268 21.4028 55.2085 20.5939 55.2085 19.5913ZM76.3315 19.5913C76.3315 18.4976 75.9442 17.6545 75.1694 17.062C74.4061 16.4696 73.0218 15.8714 71.0166 15.2676C69.0114 14.6637 67.4163 13.9915 66.2314 13.251C63.9642 11.8268 62.8306 9.96973 62.8306 7.67969C62.8306 5.67448 63.6452 4.02246 65.2744 2.72363C66.915 1.4248 69.0399 0.775391 71.6489 0.775391C73.3807 0.775391 74.9245 1.0944 76.2803 1.73242C77.6361 2.37044 78.7013 3.2819 79.4761 4.4668C80.2508 5.6403 80.6382 6.94482 80.6382 8.38037H76.3315C76.3315 7.08154 75.9214 6.06755 75.1011 5.33838C74.2922 4.59782 73.13 4.22754 71.6147 4.22754C70.202 4.22754 69.1025 4.52946 68.3164 5.1333C67.5417 5.73714 67.1543 6.58024 67.1543 7.6626C67.1543 8.57406 67.5758 9.3374 68.4189 9.95264C69.262 10.5565 70.652 11.1489 72.5889 11.73C74.5257 12.2996 76.0809 12.9548 77.2544 13.6953C78.4279 14.4245 79.2881 15.2676 79.835 16.2246C80.3818 17.1702 80.6553 18.2811 80.6553 19.5571C80.6553 21.6307 79.8577 23.2827 78.2627 24.5132C76.679 25.7323 74.5257 26.3418 71.8027 26.3418C70.0026 26.3418 68.3449 26.0114 66.8296 25.3506C65.3257 24.6784 64.1522 23.7555 63.3091 22.582C62.4774 21.4085 62.0615 20.0413 62.0615 18.4805H66.3853C66.3853 19.8932 66.8524 20.987 67.7866 21.7617C68.7209 22.5365 70.0596 22.9238 71.8027 22.9238C73.3066 22.9238 74.4346 22.6219 75.1865 22.0181C75.9499 21.4028 76.3315 20.5939 76.3315 19.5913ZM94.6689 15.1309L84.1074 11.2515V7.16699L98.873 13.5244V16.8228L84.1074 23.1802V19.0957L94.6689 15.1309Z" fill="#0F00BA"/>
</svg>
