<svg width="22" height="19" viewBox="0 0 22 19" fill="none" xmlns="http://www.w3.org/2000/svg">
<path d="M19.7385 4.72388C19.7525 4.93119 19.7525 5.13855 19.7525 5.34585C19.7525 11.669 15.2157 18.9548 6.92384 18.9548C4.36927 18.9548 1.9962 18.17 0 16.8076C0.362956 16.852 0.711905 16.8668 1.08883 16.8668C3.19665 16.8668 5.13703 16.1116 6.68653 14.8233C4.7043 14.7789 3.04313 13.4017 2.47078 11.5062C2.75 11.5506 3.02916 11.5802 3.32234 11.5802C3.72715 11.5802 4.132 11.5209 4.50888 11.4173C2.4429 10.973 0.893362 9.04796 0.893362 6.72303V6.66382C1.49359 7.01923 2.19162 7.24135 2.93141 7.27093C1.71694 6.41203 0.921291 4.94601 0.921291 3.28745C0.921291 2.39895 1.1446 1.58449 1.53549 0.873677C3.75503 3.77613 7.09134 5.67159 10.8324 5.87894C10.7626 5.52353 10.7207 5.15336 10.7207 4.78314C10.7207 2.1472 12.7309 0 15.2296 0C16.5278 0 17.7004 0.577529 18.524 1.51046C19.543 1.30315 20.5202 0.903306 21.3857 0.355406C21.0506 1.46607 20.3387 2.399 19.4035 2.9913C20.3108 2.88769 21.1903 2.62108 21.9999 2.2509C21.3858 3.19861 20.618 4.04265 19.7385 4.72388Z" fill="white"/>
</svg>
