<svg width="206" height="23" viewBox="0 0 206 23" fill="none" xmlns="http://www.w3.org/2000/svg">
<path d="M4.54102 12.7568L13.1836 16.0381V19.5977L0.922852 14.1338V11.3066L13.1836 5.85742V9.41699L4.54102 12.7568ZM26.1621 0.671875H29.8535V15.6279C29.8535 17.6689 29.2139 19.29 27.9346 20.4912C26.665 21.6924 24.9854 22.293 22.8955 22.293C20.6689 22.293 18.9502 21.7314 17.7393 20.6084C16.5283 19.4854 15.9229 17.9229 15.9229 15.9209H19.6143C19.6143 17.0537 19.8926 17.9082 20.4492 18.4844C21.0156 19.0508 21.8311 19.334 22.8955 19.334C23.8916 19.334 24.6826 19.0068 25.2686 18.3525C25.8643 17.6885 26.1621 16.7754 26.1621 15.6133V0.671875ZM45.7178 17.0342H37.4561L35.7275 22H31.875L39.9316 0.671875H43.2568L51.3281 22H47.4609L45.7178 17.0342ZM38.4961 14.0459H44.6777L41.5869 5.19824L38.4961 14.0459ZM60.1318 17.3564L65.5518 0.671875H69.624L61.9482 22H58.3594L50.7129 0.671875H54.7705L60.1318 17.3564ZM82.8662 17.0342H74.6045L72.876 22H69.0234L77.0801 0.671875H80.4053L88.4766 22H84.6094L82.8662 17.0342ZM75.6445 14.0459H81.8262L78.7354 5.19824L75.6445 14.0459ZM102.056 16.5068C102.056 15.5693 101.724 14.8467 101.06 14.3389C100.405 13.8311 99.2188 13.3184 97.5 12.8008C95.7812 12.2832 94.4141 11.707 93.3984 11.0723C91.4551 9.85156 90.4834 8.25977 90.4834 6.29688C90.4834 4.57813 91.1816 3.16211 92.5781 2.04883C93.9844 0.935547 95.8057 0.378906 98.042 0.378906C99.5264 0.378906 100.85 0.652344 102.012 1.19922C103.174 1.74609 104.087 2.52734 104.751 3.54297C105.415 4.54883 105.747 5.66699 105.747 6.89746H102.056C102.056 5.78418 101.704 4.91504 101.001 4.29004C100.308 3.65527 99.3115 3.33789 98.0127 3.33789C96.8018 3.33789 95.8594 3.59668 95.1855 4.11426C94.5215 4.63184 94.1895 5.35449 94.1895 6.28223C94.1895 7.06348 94.5508 7.71777 95.2734 8.24512C95.9961 8.7627 97.1875 9.27051 98.8477 9.76855C100.508 10.2568 101.841 10.8184 102.847 11.4531C103.853 12.0781 104.59 12.8008 105.059 13.6211C105.527 14.4316 105.762 15.3838 105.762 16.4775C105.762 18.2549 105.078 19.6709 103.711 20.7256C102.354 21.7705 100.508 22.293 98.1738 22.293C96.6309 22.293 95.21 22.0098 93.9111 21.4434C92.6221 20.8672 91.6162 20.0762 90.8936 19.0703C90.1807 18.0645 89.8242 16.8926 89.8242 15.5547H93.5303C93.5303 16.7656 93.9307 17.7031 94.7314 18.3672C95.5322 19.0312 96.6797 19.3633 98.1738 19.3633C99.4629 19.3633 100.43 19.1045 101.074 18.5869C101.729 18.0596 102.056 17.3662 102.056 16.5068ZM125.288 15.0566C125.073 17.332 124.233 19.1094 122.769 20.3887C121.304 21.6582 119.355 22.293 116.924 22.293C115.225 22.293 113.726 21.8926 112.427 21.0918C111.138 20.2812 110.142 19.1338 109.438 17.6494C108.735 16.165 108.369 14.4414 108.34 12.4785V10.4863C108.34 8.47461 108.696 6.70215 109.409 5.16895C110.122 3.63574 111.143 2.4541 112.471 1.62402C113.809 0.793945 115.352 0.378906 117.1 0.378906C119.453 0.378906 121.348 1.01855 122.783 2.29785C124.219 3.57715 125.054 5.38379 125.288 7.71777H121.597C121.421 6.18457 120.972 5.08105 120.249 4.40723C119.536 3.72363 118.486 3.38184 117.1 3.38184C115.488 3.38184 114.248 3.97266 113.379 5.1543C112.52 6.32617 112.08 8.0498 112.061 10.3252V12.2148C112.061 14.5195 112.471 16.2773 113.291 17.4883C114.121 18.6992 115.332 19.3047 116.924 19.3047C118.379 19.3047 119.473 18.9775 120.205 18.3232C120.938 17.6689 121.401 16.5801 121.597 15.0566H125.288ZM132.524 22H128.833V0.671875H132.524V22ZM144.917 13.7822H140.786V22H137.08V0.671875H144.58C147.041 0.671875 148.94 1.22363 150.278 2.32715C151.616 3.43066 152.285 5.02734 152.285 7.11719C152.285 8.54297 151.938 9.73926 151.245 10.7061C150.562 11.6631 149.604 12.4004 148.374 12.918L153.164 21.8096V22H149.194L144.917 13.7822ZM140.786 10.8086H144.595C145.845 10.8086 146.821 10.4961 147.524 9.87109C148.228 9.23633 148.579 8.37207 148.579 7.27832C148.579 6.13574 148.252 5.25195 147.598 4.62695C146.953 4.00195 145.986 3.67969 144.697 3.66016H140.786V10.8086ZM159.507 14.0752V22H155.801V0.671875H163.96C166.343 0.671875 168.232 1.29199 169.629 2.53223C171.035 3.77246 171.738 5.41309 171.738 7.4541C171.738 9.54395 171.05 11.1699 169.673 12.332C168.306 13.4941 166.387 14.0752 163.916 14.0752H159.507ZM159.507 11.1016H163.96C165.278 11.1016 166.284 10.7939 166.978 10.1787C167.671 9.55371 168.018 8.65527 168.018 7.4834C168.018 6.33105 167.666 5.41309 166.963 4.72949C166.26 4.03613 165.293 3.67969 164.062 3.66016H159.507V11.1016ZM190.4 3.66016H183.75V22H180.073V3.66016H173.481V0.671875H190.4V3.66016ZM201.973 12.6836L192.92 9.3584V5.85742L205.576 11.3066V14.1338L192.92 19.583V16.082L201.973 12.6836Z" fill="#0F00BA"/>
</svg>
